<svg xmlns="http://www.w3.org/2000/svg" viewBox="0 0 64 64" fill="none">
  <defs>
    <linearGradient id="bg" x1="0%" y1="0%" x2="100%" y2="100%">
      <stop offset="0%" stop-color="#3b82f6" stop-opacity="0.3"/>
      <stop offset="100%" stop-color="#8b5cf6" stop-opacity="0.3"/>
    </linearGradient>
    <linearGradient id="icon" x1="0%" y1="0%" x2="100%" y2="100%">
      <stop offset="0%" stop-color="#60a5fa"/>
      <stop offset="100%" stop-color="#a78bfa"/>
    </linearGradient>
  </defs>
  <rect width="64" height="64" rx="16" fill="url(#bg)"/>
  <path d="M32 12C22 12 14 20 14 30c0 6 3 11 8 14l2-4c-3.5-2.2-5.5-6-5.5-10 0-7.2 5.8-13 13-13s13 5.8 13 13c0 4-2 7.8-5.5 10l2 4c5-3 8-8 8-14 0-10-8-18-18-18z" fill="url(#icon)" opacity="0.9"/>
  <circle cx="32" cy="30" r="6" fill="url(#icon)"/>
  <rect x="18" y="48" width="28" height="4" rx="2" fill="url(#icon)" opacity="0.4"/>
</svg>